  <svg viewBox="0 0 20 20" fill="none" xmlns="http://www.w3.org/2000/svg">    <path      fill-rule="evenodd"      clip-rule="evenodd"      d="M15.6889 2.26667C14.8178 2 14.0178 2 12.4178 2H7.58222C5.96444 2 5.16444 2 4.31111 2.28444C3.35111 2.62222 2.62222 3.36889 2.26667 4.31111C2 5.18222 2 5.98222 2 7.58222V12.4178C2 14.0356 2 14.8356 2.26667 15.6889C2.62222 16.6489 3.35111 17.3778 4.31111 17.7333C5.18222 18 5.98222 18 7.58222 18H12.4178C14.0178 18 14.8178 18 15.7067 17.7156C16.6489 17.3778 17.3956 16.6311 17.7333 15.6889C18 14.8178 18 14.0178 18 12.4178V7.58222C18 5.98222 18 5.16444 17.7156 4.29333C17.3778 3.35111 16.6311 2.60444 15.6889 2.26667ZM5.69853 13.1832C5.66297 13.201 5.62742 13.2187 5.60964 13.2543L5.11186 14.0721C4.91631 14.4099 4.98742 14.8721 5.30742 15.1032C5.44964 15.2099 5.60964 15.2632 5.76964 15.2632C6.0363 15.2632 6.30297 15.121 6.44519 14.8721L7.17408 13.6276C7.19186 13.5921 7.19186 13.5387 7.15631 13.5032C6.87186 13.2543 6.5163 13.1121 6.12519 13.1121C5.98298 13.1121 5.84076 13.1476 5.69854 13.1832L5.69853 13.1832ZM15.8852 12.0454C15.8496 11.6543 15.4941 11.3521 15.0852 11.3521V11.3343H13.2719L11.103 7.63652C11.0674 7.58319 10.9785 7.58319 10.943 7.63652C10.6585 8.1343 10.5163 8.75652 10.5163 9.37874C10.5163 9.42319 10.5208 9.46763 10.5252 9.51208C10.5296 9.55652 10.5341 9.60097 10.5341 9.64541C10.5341 9.68097 10.5341 9.69874 10.5519 9.71652L11.8674 11.9921L13.5385 14.8899C13.6808 15.1387 13.9474 15.281 14.2141 15.281C14.3741 15.281 14.5341 15.2276 14.6763 15.121C14.9963 14.8899 15.0674 14.4276 14.8719 14.0899L14.1785 12.8987H15.1208C15.5652 12.8987 15.9207 12.5076 15.8852 12.0454ZM11.6363 12.561C11.6363 12.0632 11.3874 11.6187 10.9963 11.3876C10.9607 11.3699 10.9252 11.3521 10.8719 11.3521H9.73408H8.48964L11.5474 6.14319C11.7607 5.78763 11.6896 5.32541 11.3519 5.0943C10.9785 4.82763 10.463 4.95208 10.2319 5.34319L10.0185 5.69874L9.82297 5.36097C9.60964 5.02319 9.18297 4.86319 8.80964 5.02319C8.38297 5.20097 8.22297 5.71652 8.45408 6.10763L9.11186 7.22763L6.71186 11.3521H4.95186C4.54297 11.3521 4.18742 11.6365 4.15186 12.0454C4.09853 12.5076 4.47186 12.8987 4.91631 12.8987H9.05853H11.5474C11.5652 12.8987 11.6007 12.881 11.6007 12.8632C11.603 12.8496 11.6053 12.8364 11.6075 12.8233C11.6228 12.7336 11.6363 12.6541 11.6363 12.561Z"    />  </svg>