  <svg viewBox="0 0 20 20" fill="none" xmlns="http://www.w3.org/2000/svg">    <path      fill-rule="evenodd"      clip-rule="evenodd"      d="M10 18C14.4183 18 18 14.4183 18 10C18 5.58172 14.4183 2 10 2C5.58172 2 2 5.58172 2 10C2 14.4183 5.58172 18 10 18ZM11.2 13.6C11.2 14.2628 10.6627 14.8 9.99995 14.8C9.33721 14.8 8.79995 14.2628 8.79995 13.6V10C8.79995 9.33728 9.33721 8.80002 9.99995 8.80002C10.6627 8.80002 11.2 9.33728 11.2 10L11.2 13.6ZM8.79998 6.40002C8.79998 5.73727 9.33724 5.20002 9.99998 5.20002C10.6627 5.20002 11.2 5.73728 11.2 6.40002C11.2 7.06276 10.6627 7.60002 9.99998 7.60002C9.33724 7.60002 8.79998 7.06276 8.79998 6.40002Z"    />  </svg>