  <svg viewBox="0 0 20 20" fill="none" xmlns="http://www.w3.org/2000/svg">    <path      fill-rule="evenodd"      clip-rule="evenodd"      d="M7.44766 6.96422L11.2849 7.01817L5.02674 13.2763C4.57054 13.7325 4.5819 14.4814 5.05027 14.9497C5.51863 15.4181 6.26751 15.4295 6.72371 14.9733L12.9818 8.71514L13.0358 12.5523C13.045 13.2067 13.5812 13.7429 14.2355 13.7521C14.8899 13.7613 15.4112 13.2399 15.402 12.5856L15.3079 5.89184C15.3033 5.56552 15.167 5.26746 14.9498 5.05025C14.7325 4.83304 14.4345 4.69667 14.1082 4.69208L7.4144 4.59797C6.76008 4.58877 6.23871 5.11014 6.2479 5.76446C6.2571 6.41878 6.79335 6.95502 7.44766 6.96422Z"    />  </svg>