  <svg viewBox="0 0 20 20" fill="none" xmlns="http://www.w3.org/2000/svg">    <path      d="M15.1111 2C16.7066 2 18 3.2934 18 4.88889V10.888L13.7788 10.8889L13.5894 10.8951C12.5248 10.9642 11.6174 11.6099 11.1765 12.5238C10.8035 12.6246 10.4121 12.6751 10.0008 12.6751C9.0721 12.6751 8.24123 12.4177 7.49025 11.8983C7.18744 11.6889 6.77217 11.7646 6.56273 12.0674C6.35328 12.3702 6.42897 12.7854 6.73179 12.9949C7.70648 13.669 8.80209 14.0084 10.0008 14.0084C10.2026 14.0084 10.4016 13.9988 10.5977 13.9796L10.8897 13.9435L10.8889 18H4.88889C3.2934 18 2 16.7066 2 15.1111V4.88889C2 3.2934 3.2934 2 4.88889 2H15.1111ZM17.4142 12.4175L12.4175 17.4142C12.3563 17.4754 12.2916 17.5322 12.2238 17.5844L12.2229 13.7779L12.2281 13.6503C12.2897 12.8954 12.8903 12.2928 13.6444 12.228L13.779 12.2222L17.5851 12.2229C17.5327 12.291 17.4757 12.356 17.4142 12.4175ZM7.33373 6.22325C6.72043 6.22325 6.22325 6.72043 6.22325 7.33373C6.22325 7.94703 6.72043 8.44421 7.33373 8.44421C7.94703 8.44421 8.44421 7.94703 8.44421 7.33373C8.44421 6.72043 7.94703 6.22325 7.33373 6.22325ZM12.6671 6.22325C12.0538 6.22325 11.5566 6.72043 11.5566 7.33373C11.5566 7.94703 12.0538 8.44421 12.6671 8.44421C13.2804 8.44421 13.7775 7.94703 13.7775 7.33373C13.7775 6.72043 13.2804 6.22325 12.6671 6.22325Z"    />  </svg>