  <svg viewBox="0 0 20 20" fill="none" xmlns="http://www.w3.org/2000/svg">    <path      d="M10.0091 2C10.6363 2.00723 11.2611 2.0797 11.8733 2.21623C12.1405 2.27583 12.3404 2.49863 12.3707 2.77075L12.5162 4.07549C12.582 4.67456 13.0878 5.1283 13.6908 5.12893C13.8529 5.12918 14.0132 5.09543 14.163 5.02916L15.3598 4.50339C15.6088 4.39404 15.8996 4.45366 16.0854 4.65213C16.9504 5.5759 17.5946 6.6838 17.9695 7.89248C18.0503 8.1531 17.9573 8.43634 17.7376 8.59825L16.6767 9.38022C16.3741 9.60257 16.1954 9.95567 16.1954 10.3312C16.1954 10.7067 16.3741 11.0598 16.6774 11.2827L17.7392 12.0649C17.9589 12.2268 18.052 12.5101 17.9712 12.7707C17.5964 13.9792 16.9526 15.087 16.0882 16.0109C15.9025 16.2094 15.6119 16.2692 15.363 16.1601L14.1612 15.6336C13.8174 15.4831 13.4226 15.5052 13.0977 15.693C12.7728 15.8807 12.5565 16.2118 12.5152 16.5849L12.3708 17.8895C12.341 18.1585 12.1454 18.3798 11.8821 18.4424C10.6444 18.7369 9.35479 18.7369 8.11705 18.4424C7.85375 18.3798 7.65818 18.1585 7.62839 17.8895L7.48412 16.5868C7.44175 16.2145 7.22518 15.8844 6.90053 15.6972C6.57588 15.5101 6.18169 15.4881 5.83902 15.6378L4.63701 16.1644C4.38804 16.2735 4.09734 16.2136 3.9117 16.0151C3.04678 15.0901 2.40295 13.981 2.02867 12.7712C1.94806 12.5106 2.0412 12.2275 2.2608 12.0658L3.32326 11.283C3.62589 11.0607 3.80462 10.7076 3.80462 10.332C3.80462 9.95653 3.62589 9.60342 3.32287 9.38078L2.26107 8.5994C2.04114 8.43755 1.94791 8.15413 2.02881 7.89333C2.40374 6.68466 3.04791 5.57675 3.91284 4.65299C4.09867 4.45451 4.38951 4.3949 4.63844 4.50425L5.8351 5.02992C6.17943 5.18103 6.57528 5.15821 6.90168 4.96752C7.22668 4.779 7.44304 4.44756 7.48481 4.07449L7.63015 2.77075C7.6605 2.49849 7.86054 2.27562 8.12796 2.21615C8.74089 2.07983 9.3663 2.00739 10.0091 2ZM9.99843 7.76803C8.5826 7.76803 7.43485 8.91579 7.43485 10.3316C7.43485 11.7474 8.5826 12.8952 9.99843 12.8952C11.4143 12.8952 12.562 11.7474 12.562 10.3316C12.562 8.91579 11.4143 7.76803 9.99843 7.76803Z"    />  </svg>