  <svg viewBox="0 0 20 20" fill="none" xmlns="http://www.w3.org/2000/svg">    <path      d="M10.0016 2C14.4207 2 18.0031 5.58242 18.0031 10.0016C18.0031 14.4207 14.4207 18.0031 10.0016 18.0031C5.58242 18.0031 2 14.4207 2 10.0016C2 5.58242 5.58242 2 10.0016 2ZM10.0016 3.20005C6.24518 3.20005 3.20005 6.24518 3.20005 10.0016C3.20005 13.7579 6.24518 16.8031 10.0016 16.8031C13.7579 16.8031 16.8031 13.7579 16.8031 10.0016C16.8031 6.24518 13.7579 3.20005 10.0016 3.20005ZM7.17083 12.2283C7.85017 13.0905 8.88302 13.6029 10.0015 13.6029C11.1186 13.6029 12.1502 13.0919 12.8296 12.2316C13.035 11.9716 13.4123 11.9273 13.6724 12.1327C13.9324 12.338 13.9767 12.7154 13.7714 12.9754C12.8667 14.1208 11.4897 14.803 10.0015 14.803C8.51137 14.803 7.13273 14.119 6.22822 12.971C6.02313 12.7107 6.06788 12.3334 6.32818 12.1283C6.58848 11.9232 6.96575 11.968 7.17083 12.2283ZM7.60182 7.40196C8.15381 7.40196 8.60129 7.84944 8.60129 8.40143C8.60129 8.95342 8.15381 9.4009 7.60182 9.4009C7.04982 9.4009 6.60235 8.95342 6.60235 8.40143C6.60235 7.84944 7.04982 7.40196 7.60182 7.40196ZM12.402 7.40196C12.954 7.40196 13.4015 7.84944 13.4015 8.40143C13.4015 8.95342 12.954 9.4009 12.402 9.4009C11.85 9.4009 11.4025 8.95342 11.4025 8.40143C11.4025 7.84944 11.85 7.40196 12.402 7.40196Z"    />  </svg>