  <svg viewBox="0 0 20 20" fill="none" xmlns="http://www.w3.org/2000/svg">    <path      fill-rule="evenodd"      clip-rule="evenodd"      d="M2.73358 1.84957C2.4895 1.60549 2.09377 1.60548 1.84969 1.84955C1.60561 2.09363 1.6056 2.48936 1.84968 2.73344L6.66663 7.55049V9.99984C6.66663 11.8408 8.15901 13.3332 9.99996 13.3332C10.6945 13.3332 11.3395 13.1208 11.8734 12.7573L12.8283 13.7123C12.098 14.2592 11.191 14.5832 10.2083 14.5832H9.79163L9.61129 14.5795C7.27867 14.4849 5.41663 12.564 5.41663 10.2082V9.7915L5.41092 9.70667C5.36954 9.40167 5.10804 9.1665 4.79163 9.1665C4.44645 9.1665 4.16663 9.44634 4.16663 9.7915V10.2082L4.17001 10.4051C4.26898 13.2815 6.52765 15.6095 9.37496 15.818V17.7082L9.38063 17.793C9.42204 18.098 9.68354 18.3332 9.99996 18.3332C10.3451 18.3332 10.625 18.0533 10.625 17.7082L10.6258 15.8179C11.7916 15.7324 12.8587 15.2915 13.7192 14.6033L17.2661 18.1503C17.5102 18.3943 17.906 18.3943 18.15 18.1503C18.3941 17.9062 18.3941 17.5104 18.15 17.2663L2.73358 1.84957ZM14.3302 11.6785L15.2851 12.6335C15.6365 11.8991 15.8334 11.0766 15.8334 10.2082V9.7915L15.8277 9.70667C15.7863 9.40167 15.5248 9.1665 15.2084 9.1665C14.8632 9.1665 14.5834 9.44634 14.5834 9.7915V10.2082L14.5797 10.3885C14.5615 10.8394 14.4749 11.2728 14.3302 11.6785ZM13.2751 10.6234L6.78137 4.12963C7.16407 2.71069 8.46005 1.6665 9.99997 1.6665C11.8409 1.6665 13.3333 3.15889 13.3333 4.99984V9.99984C13.3333 10.213 13.3133 10.4214 13.2751 10.6234Z"    />  </svg>