  <svg viewBox="0 0 20 20" fill="none" xmlns="http://www.w3.org/2000/svg">    <path      fill-rule="evenodd"      clip-rule="evenodd"      d="M1.84975 1.85004C2.09383 1.60597 2.48956 1.60598 2.73364 1.85006L18.1501 17.2668C18.3942 17.5109 18.3942 17.9067 18.1501 18.1507C17.906 18.3948 17.5103 18.3948 17.2662 18.1507L12.5 13.3844V16.455C12.5 17.3539 11.4379 17.8307 10.7662 17.2334L7.0233 13.9053C6.90888 13.8036 6.7611 13.7474 6.60799 13.7474H3.54169C2.50615 13.7474 1.66669 12.9079 1.66669 11.8724V8.12414C1.66669 7.08861 2.50615 6.24914 3.54169 6.24914H5.36488L1.84974 2.73393C1.60566 2.48985 1.60567 2.09412 1.84975 1.85004ZM15.2325 12.5813L14.2842 11.633C14.4774 11.1262 14.5833 10.5761 14.5833 10.0002C14.5833 9.21047 14.3841 8.46914 14.0337 7.82183C13.8693 7.51827 13.9823 7.13898 14.2858 6.97466C14.5893 6.81033 14.9687 6.9232 15.133 7.22675C15.5798 8.05226 15.8333 8.99756 15.8333 10.0002C15.8333 10.9258 15.6173 11.8026 15.2325 12.5813ZM16.1568 13.5057L17.0679 14.4169C17.8698 13.1363 18.3333 11.6218 18.3333 10.0004C18.3333 8.14526 17.7264 6.4301 16.7006 5.04504C16.4951 4.76766 16.1037 4.70935 15.8263 4.91479C15.5489 5.12024 15.4907 5.51165 15.6961 5.78902C16.5679 6.96616 17.0833 8.42219 17.0833 10.0004C17.0833 11.2763 16.7465 12.4723 16.1568 13.5057ZM12.5 9.84883L7.93335 5.28211L10.7662 2.76352C11.4379 2.16628 12.5 2.64314 12.5 3.542V9.84883Z"    />  </svg>