  <svg viewBox="0 0 20 20" fill="none" xmlns="http://www.w3.org/2000/svg">    <path      fill-rule="evenodd"      clip-rule="evenodd"      d="M10.3418 6.0486L13.017 8.80006L4.16667 8.80006C3.5215 8.80006 3 9.33763 3 10C3 10.6624 3.5215 11.1999 4.16667 11.1999L13.017 11.1999L10.3418 13.9514C9.88567 14.4206 9.88567 15.1789 10.3418 15.6481C10.798 16.1173 11.5353 16.1173 11.9915 15.6481L16.6582 10.8484C16.8857 10.6144 17 10.3072 17 10C17 9.69281 16.8857 9.38563 16.6582 9.15164L11.9915 4.35188C11.5353 3.88271 10.798 3.88271 10.3418 4.35188C9.88567 4.82106 9.88567 5.57942 10.3418 6.0486Z"    />  </svg>