  <svg viewBox="0 0 20 20" fill="none" xmlns="http://www.w3.org/2000/svg">    <path      d="M16.5678 17C18.1785 17 19 16.1925 19 14.6094V5.38264C19 3.80754 18.1785 3 16.5678 3H3.43221C1.82148 3 1 3.79954 1 5.38264V14.6094C1 16.1925 1.82148 17 3.43221 17H16.5678ZM2.32886 13.7219V5.47059C2.32886 4.70303 2.7396 4.31925 3.48054 4.31925H16.5195C17.2523 4.31925 17.6711 4.70303 17.6711 5.47059V13.6899L13.6846 9.97202C13.3463 9.67619 12.9517 9.51628 12.5409 9.51628C12.1221 9.51628 11.7436 9.6522 11.3973 9.96402L7.95839 13.0183L6.54899 11.755C6.22685 11.4672 5.87248 11.3232 5.51812 11.3232C5.17181 11.3232 4.84966 11.4592 4.53557 11.747L2.32886 13.7219ZM6.75839 10.084C7.74899 10.084 8.56242 9.28441 8.56242 8.29298C8.56242 7.30954 7.74899 6.494 6.75839 6.494C5.75973 6.494 4.95436 7.30954 4.95436 8.29298C4.95436 9.28441 5.75973 10.084 6.75839 10.084Z"      stroke-width="0.3"    />  </svg>