  <svg viewBox="0 0 20 20" fill="none" xmlns="http://www.w3.org/2000/svg">    <path      fill-rule="evenodd"      clip-rule="evenodd"      d="M10.625 2.5H16.875C17.3721 2.50052 17.8487 2.69823 18.2003 3.04975C18.5518 3.40126 18.7495 3.87788 18.75 4.375V12.5C18.7495 12.9971 18.5518 13.4737 18.2003 13.8253C17.8487 14.1768 17.3721 14.3745 16.875 14.375H15.2035L16.2258 17.9531C16.2502 18.0326 16.2585 18.1161 16.2502 18.1987C16.242 18.2814 16.2173 18.3616 16.1777 18.4347C16.1381 18.5077 16.0843 18.5721 16.0195 18.6241C15.9546 18.6761 15.8801 18.7147 15.8002 18.7375C15.7203 18.7604 15.6367 18.7671 15.5542 18.7572C15.4717 18.7473 15.392 18.7211 15.3197 18.6801C15.2475 18.6391 15.1841 18.5841 15.1334 18.5183C15.0826 18.4524 15.0455 18.3772 15.0242 18.2969L13.9035 14.375H10.625V16.25C10.625 16.4158 10.5592 16.5747 10.4419 16.6919C10.3247 16.8092 10.1658 16.875 10 16.875C9.83424 16.875 9.67527 16.8092 9.55806 16.6919C9.44085 16.5747 9.375 16.4158 9.375 16.25V14.375H6.09648L4.97578 18.2969C4.95447 18.3772 4.91737 18.4524 4.86663 18.5183C4.81589 18.5841 4.75254 18.6391 4.68028 18.6801C4.60803 18.7211 4.52831 18.7473 4.44581 18.7572C4.3633 18.7671 4.27966 18.7604 4.19977 18.7375C4.11988 18.7147 4.04535 18.6761 3.98054 18.6241C3.91573 18.5721 3.86194 18.5077 3.82232 18.4347C3.7827 18.3616 3.75803 18.2814 3.74977 18.1987C3.74151 18.1161 3.74982 18.0326 3.77422 17.9531L4.79648 14.375H3.125C2.62788 14.3745 2.15126 14.1768 1.79975 13.8253C1.44823 13.4737 1.25052 12.9971 1.25 12.5V4.375C1.25052 3.87788 1.44823 3.40126 1.79975 3.04975C2.15126 2.69823 2.62788 2.50052 3.125 2.5H9.375V1.875C9.375 1.70924 9.44085 1.55027 9.55806 1.43306C9.67527 1.31585 9.83424 1.25 10 1.25C10.1658 1.25 10.3247 1.31585 10.4419 1.43306C10.5592 1.55027 10.625 1.70924 10.625 1.875V2.5ZM17.3169 12.9419C17.4342 12.8247 17.5 12.6658 17.5 12.5V4.375C17.5 4.20924 17.4342 4.05027 17.3169 3.93306C17.1997 3.81585 17.0408 3.75 16.875 3.75H3.125C2.95924 3.75 2.80027 3.81585 2.68306 3.93306C2.56585 4.05027 2.5 4.20924 2.5 4.375V12.5C2.5 12.6658 2.56585 12.8247 2.68306 12.9419C2.80027 13.0592 2.95924 13.125 3.125 13.125H16.875C17.0408 13.125 17.1997 13.0592 17.3169 12.9419ZM3.125 4.84375C3.125 4.58487 3.33487 4.375 3.59375 4.375H16.4062C16.6651 4.375 16.875 4.58487 16.875 4.84375V12.0312C16.875 12.2901 16.6651 12.5 16.4062 12.5H3.59375C3.33487 12.5 3.125 12.2901 3.125 12.0312V4.84375Z"    />  </svg>