  <svg viewBox="0 0 20 20" fill="none" xmlns="http://www.w3.org/2000/svg">    <path      fill-rule="evenodd"      clip-rule="evenodd"      d="M9.95252 2C9.95252 1.44772 10.4002 1 10.9525 1H17.2483C17.8006 1 18.2483 1.44772 18.2483 2V5.98939C18.2483 6.54168 17.8006 6.98939 17.2483 6.98939H15.1547L12.494 8.41751L12.5137 6.98939H10.9525C10.4002 6.98939 9.95252 6.54168 9.95252 5.98939V2ZM12.3763 3.94107C12.3763 4.23231 12.6124 4.46841 12.9037 4.46841H15.2972C15.5884 4.46841 15.8245 4.23231 15.8245 3.94107C15.8245 3.64982 15.5884 3.41372 15.2972 3.41372H12.9037C12.6124 3.41372 12.3763 3.64982 12.3763 3.94107ZM7.02872 11.9576C7.02872 12.9828 7.55064 13.8883 8.34275 14.4226C6.73906 15.0781 5.60605 16.655 5.60605 18.4918V19.0001H14.3939V18.4917C14.3939 16.655 13.2609 15.0781 11.6572 14.4226C12.4493 13.8883 12.9712 12.9828 12.9712 11.9576C12.9712 10.3192 11.6383 8.98633 9.99998 8.98633C8.36159 8.98633 7.02872 10.3192 7.02872 11.9576ZM3.30931 14.8769C2.6688 14.3827 2.25504 13.6083 2.25504 12.7386C2.25504 11.2498 3.46628 10.0386 4.95508 10.0386C5.44065 10.0386 5.89628 10.1681 6.29045 10.3934C6.08679 10.8745 5.97408 11.4032 5.97408 11.9577C5.97408 12.7661 6.21617 13.5412 6.65295 14.1939C6.21216 14.5376 5.82435 14.9493 5.50306 15.4181C4.88044 16.3265 4.55134 17.3894 4.55134 18.4919V19.0002H1V18.4729C1 16.879 1.94781 15.5025 3.30931 14.8769ZM14.0259 11.9577C14.0259 11.4032 13.9132 10.8746 13.7095 10.3934C14.1036 10.1681 14.5593 10.0386 15.0448 10.0386C16.5337 10.0386 17.7449 11.2498 17.7449 12.7386C17.7449 13.6083 17.3312 14.3828 16.6906 14.8769C18.0522 15.5025 19 16.879 19 18.4728V19.0002H15.4486V18.4919C15.4486 17.3894 15.1195 16.3265 14.4969 15.4181C14.1756 14.9493 13.7878 14.5376 13.347 14.1939C13.7838 13.5412 14.0259 12.7661 14.0259 11.9577ZM8.75152 4.25879C8.75152 3.7065 8.3038 3.25879 7.75152 3.25879H2.75156C2.19927 3.25879 1.75156 3.7065 1.75156 4.25879V7.36502C1.75156 7.91731 2.19927 8.36502 2.75156 8.36502H4.36219L6.66707 9.60214L6.64998 8.36502H7.75152C8.3038 8.36502 8.75152 7.91731 8.75152 7.36502V4.25879ZM4.36335 6.29523C4.07211 6.29523 3.83601 6.05913 3.83601 5.76789C3.83601 5.47665 4.07211 5.24055 4.36335 5.24055H6.13973C6.43097 5.24055 6.66707 5.47665 6.66707 5.76789C6.66707 6.05913 6.43097 6.29523 6.13973 6.29523H4.36335Z"    />  </svg>