  <svg viewBox="0 0 20 20" fill="none" xmlns="http://www.w3.org/2000/svg">    <path      d="M5.28563 4.11566C5.61106 4.4411 5.61106 4.96873 5.28563 5.29417C2.68129 7.8985 2.68129 12.121 5.28563 14.7253C5.61106 15.0507 5.61106 15.5784 5.28563 15.9038C4.96019 16.2292 4.43255 16.2292 4.10712 15.9038C0.851908 12.6486 0.851908 7.37087 4.10712 4.11566C4.43255 3.79022 4.96019 3.79022 5.28563 4.11566ZM15.8953 4.11566C19.1505 7.37087 19.1505 12.6486 15.8953 15.9038C15.5698 16.2292 15.0422 16.2292 14.7168 15.9038C14.3913 15.5784 14.3913 15.0507 14.7168 14.7253C17.3211 12.121 17.3211 7.8985 14.7168 5.29417C14.3913 4.96873 14.3913 4.4411 14.7168 4.11566C15.0422 3.79022 15.5698 3.79022 15.8953 4.11566ZM7.75784 6.51014C8.08327 6.83558 8.08327 7.36321 7.75784 7.68865C6.48203 8.96445 6.48203 11.0329 7.75784 12.3087C8.08327 12.6342 8.08327 13.1618 7.75784 13.4872C7.4324 13.8127 6.90476 13.8127 6.57932 13.4872C4.65265 11.5606 4.65265 8.43682 6.57932 6.51014C6.90476 6.1847 7.4324 6.1847 7.75784 6.51014ZM13.5564 6.51014C15.4831 8.43682 15.4831 11.5606 13.5564 13.4872C13.231 13.8127 12.7034 13.8127 12.3779 13.4872C12.0525 13.1618 12.0525 12.6342 12.3779 12.3087C13.6537 11.0329 13.6537 8.96445 12.3779 7.68865C12.0525 7.36321 12.0525 6.83558 12.3779 6.51014C12.7034 6.1847 13.231 6.1847 13.5564 6.51014ZM10.0679 8.81799C10.7582 8.81799 11.3179 9.37764 11.3179 10.068C11.3179 10.7583 10.7582 11.318 10.0679 11.318C9.37752 11.318 8.81788 10.7583 8.81788 10.068C8.81788 9.37764 9.37752 8.81799 10.0679 8.81799Z"    />  </svg>