  <svg viewBox="0 0 20 20" fill="none" xmlns="http://www.w3.org/2000/svg">    <path      d="M4.15625 14.6328H15.9062C16.625 14.6328 17.0547 14.2578 17.0547 13.6875C17.0547 12.9375 16.3203 12.2656 15.6719 11.6172C15.1719 11.1094 15.0469 10.0547 14.9766 9.16406C14.8984 6.36719 14.1328 4.42969 12.1875 3.72656C11.8984 2.75781 11.1172 2 10.0312 2C8.9375 2 8.16406 2.75781 7.875 3.72656C5.92969 4.42969 5.16406 6.36719 5.08594 9.16406C5.01562 10.0547 4.89062 11.1094 4.39062 11.6172C3.74219 12.2656 3 12.9375 3 13.6875C3 14.2578 3.4375 14.6328 4.15625 14.6328ZM10.0312 17.6172C11.3047 17.6172 12.2344 16.6953 12.3281 15.6484H7.73438C7.82812 16.6953 8.75781 17.6172 10.0312 17.6172Z"    />  </svg>