  <svg viewBox="0 0 32 32" fill="none" xmlns="http://www.w3.org/2000/svg">    <path      d="M16.0001 28.8002C16.1895 28.8002 16.4138 28.738 16.673 28.6136C16.9422 28.4988 17.1964 28.3649 17.4356 28.2119C20.0574 26.5855 22.3403 24.8731 24.2842 23.0746C26.2281 21.2761 27.7334 19.4298 28.8001 17.5356C29.8668 15.6319 30.4001 13.7138 30.4001 11.7814C30.4001 10.509 30.1858 9.35147 29.7571 8.30872C29.3284 7.2564 28.7403 6.34758 27.9926 5.58226C27.245 4.81694 26.3727 4.2286 25.3758 3.81724C24.3889 3.40588 23.3272 3.2002 22.1908 3.2002C20.7752 3.2002 19.544 3.54459 18.4973 4.23338C17.4605 4.9126 16.6281 5.81185 16.0001 6.93114C15.3721 5.82142 14.5347 4.92217 13.4879 4.23338C12.4412 3.54459 11.2151 3.2002 9.80944 3.2002C8.66303 3.2002 7.59137 3.40588 6.59449 3.81724C5.60757 4.2286 4.74028 4.81694 3.99262 5.58226C3.24496 6.34758 2.6568 7.2564 2.22814 8.30872C1.80944 9.35147 1.6001 10.509 1.6001 11.7814C1.6001 13.7138 2.13343 15.6319 3.2001 17.5356C4.26676 19.4298 5.76708 21.2761 7.70103 23.0746C9.64496 24.8731 11.9278 26.5855 14.5496 28.2119C14.7989 28.3649 15.0531 28.4988 15.3122 28.6136C15.5714 28.738 15.8007 28.8002 16.0001 28.8002Z"    />  </svg>