  <svg viewBox="0 0 20 20" fill="none" xmlns="http://www.w3.org/2000/svg">    <path      d="M14.05 9.1C16.7838 9.1 19 11.3162 19 14.05C19 16.7838 16.7838 19 14.05 19C11.3162 19 9.1 16.7838 9.1 14.05C9.1 11.3162 11.3162 9.1 14.05 9.1ZM17.2 5.95L17.2011 9.12033C16.2916 8.53777 15.2102 8.2 14.05 8.2C10.8191 8.2 8.2 10.8191 8.2 14.05C8.2 15.2102 8.53777 16.2916 9.12033 17.2011L3.925 17.2C2.30957 17.2 1 15.8904 1 14.275V5.95H17.2ZM14.05 10.9L13.9691 10.9072C13.7854 10.9406 13.6406 11.0854 13.6073 11.2691L13.6 11.35V13.6H11.35L11.2691 13.6073C11.0854 13.6406 10.9406 13.7854 10.9072 13.9691L10.9 14.05L10.9072 14.1309C10.9406 14.3146 11.0854 14.4594 11.2691 14.4927L11.35 14.5H13.6V16.75L13.6073 16.8309C13.6406 17.0146 13.7854 17.1594 13.9691 17.1927L14.05 17.2L14.1309 17.1927C14.3146 17.1594 14.4594 17.0146 14.4927 16.8309L14.5 16.75V14.5H16.75L16.8309 14.4927C17.0146 14.4594 17.1594 14.3146 17.1927 14.1309L17.2 14.05L17.1927 13.9691C17.1594 13.7854 17.0146 13.6406 16.8309 13.6073L16.75 13.6H14.5V11.35L14.4927 11.2691C14.4594 11.0854 14.3146 10.9406 14.1309 10.9072L14.05 10.9ZM14.275 1C15.8904 1 17.2 2.30957 17.2 3.925V4.6H1V3.925C1 2.30957 2.30957 1 3.925 1H14.275Z"    />  </svg>