  <svg viewBox="0 0 20 20" fill="none" xmlns="http://www.w3.org/2000/svg">    <path      fill-rule="evenodd"      clip-rule="evenodd"      d="M5.25 2C4.55964 2 4 2.55964 4 3.25V12C4 12.6624 4.5215 13.1999 5.16667 13.1999H13.017L10.3418 15.9514C9.88567 16.4206 9.88567 17.1789 10.3418 17.6481C10.798 18.1173 11.5353 18.1173 11.9915 17.6481L16.6582 12.8484C16.8857 12.6144 17 12.3072 17 12C17 11.6928 16.8857 11.3856 16.6582 11.1516L11.9915 6.35188C11.5353 5.88271 10.798 5.88271 10.3418 6.35188C9.88566 6.82106 9.88566 7.57942 10.3418 8.0486L13.017 10.8001H6.5V3.25C6.5 2.55964 5.94036 2 5.25 2Z"    />  </svg>