  <svg viewBox="0 0 144 144" fill="none" xmlns="http://www.w3.org/2000/svg">    <path      d="M130.242 22.2415C131.335 21.1099 131.94 19.5943 131.926 18.0211C131.912 16.4479 131.281 14.9431 130.169 13.8306C129.056 12.7182 127.552 12.0871 125.978 12.0735C124.405 12.0598 122.89 12.6646 121.758 13.7575L110.976 24.5395C106.086 21.4996 100.312 20.2033 94.5915 20.8613C88.8714 21.5192 83.5421 24.0928 79.47 28.1635L73.062 34.5775C71.0945 36.5464 69.9892 39.216 69.9892 41.9995C69.9892 44.783 71.0945 47.4526 73.062 49.4215L94.572 70.9375C95.547 71.9126 96.7046 72.6862 97.9786 73.2139C99.2526 73.7416 100.618 74.0133 101.997 74.0133C103.376 74.0133 104.741 73.7416 106.015 73.2139C107.289 72.6862 108.447 71.9126 109.422 70.9375L115.83 64.5295C119.9 60.4586 122.474 55.1308 123.133 49.4119C123.792 43.6931 122.498 37.9195 119.46 33.0295L130.242 22.2415ZM64.242 70.2415C65.335 69.1099 65.9397 67.5943 65.926 66.0211C65.9124 64.4479 65.2814 62.9431 64.1689 61.8306C63.0565 60.7182 61.5516 60.0871 59.9784 60.0735C58.4052 60.0598 56.8896 60.6646 55.758 61.7575L46.938 70.5775L45.18 68.8195C44.3363 67.9768 43.1925 67.5035 42 67.5035C40.8075 67.5035 39.6638 67.9768 38.82 68.8195L28.17 79.4695C24.0998 83.5404 21.526 88.8683 20.867 94.5871C20.2079 100.306 21.5024 106.08 24.54 110.97L13.758 121.758C13.1849 122.311 12.7278 122.973 12.4134 123.705C12.0989 124.437 11.9334 125.224 11.9265 126.021C11.9196 126.818 12.0714 127.608 12.3731 128.345C12.6748 129.083 13.1203 129.753 13.6836 130.316C14.247 130.879 14.9169 131.325 15.6543 131.626C16.3917 131.928 17.1817 132.08 17.9784 132.073C18.7751 132.066 19.5624 131.901 20.2944 131.586C21.0265 131.272 21.6885 130.815 22.242 130.242L33.03 119.46C37.92 122.497 43.6936 123.792 49.4124 123.133C55.1312 122.474 60.4591 119.9 64.53 115.83L75.18 105.18C76.0227 104.336 76.496 103.192 76.496 102C76.496 100.807 76.0227 99.6633 75.18 98.8195L73.422 97.0615L82.242 88.2415C83.335 87.1099 83.9397 85.5943 83.926 84.0211C83.9124 82.4479 83.2814 80.9431 82.1689 79.8306C81.0565 78.7182 79.5516 78.0871 77.9784 78.0735C76.4052 78.0598 74.8896 78.6646 73.758 79.7575L64.938 88.5775L55.422 79.0615L64.242 70.2415Z"    />  </svg>