  <svg viewBox="0 0 20 20" fill="none" xmlns="http://www.w3.org/2000/svg">    <path      fill-rule="evenodd"      clip-rule="evenodd"      d="M14.2804 2.19657C13.9875 1.93626 13.5126 1.93626 13.2197 2.19657L12.25 3.05835L11.2803 2.19657C10.9875 1.93626 10.5126 1.93626 10.2197 2.19657L9.25001 3.05835L8.28034 2.19657C7.98745 1.93626 7.51257 1.93626 7.21968 2.19657L6.25001 3.05835L5.28033 2.19657C4.80786 1.77666 4 2.07405 4 2.66789V15.999C4 16.1758 4.07902 16.3454 4.21967 16.4704L5.71967 17.8035C6.01257 18.0638 6.48744 18.0638 6.78034 17.8035L7.75001 16.9417L8.71968 17.8035C9.01258 18.0638 9.48745 18.0638 9.78034 17.8035L10.75 16.9417L11.7197 17.8035C12.0126 18.0638 12.4875 18.0638 12.7804 17.8035L13.75 16.9417L14.7197 17.8035C15.1922 18.2234 16 17.926 16 17.3321V4.00101C16 3.82423 15.921 3.65468 15.7804 3.52968L14.2804 2.19657ZM12.6669 10.6687H7.33315C6.96512 10.6687 6.66643 10.37 6.66643 10.002C6.66643 9.63397 6.96512 9.33528 7.33315 9.33528H12.6669C13.035 9.33528 13.3337 9.63397 13.3337 10.002C13.3337 10.37 13.035 10.6687 12.6669 10.6687ZM7.33315 8.00186H12.6669C13.035 8.00186 13.3337 7.70317 13.3337 7.33514C13.3337 6.96711 13.035 6.66842 12.6669 6.66842H7.33315C6.96512 6.66842 6.66643 6.96711 6.66643 7.33514C6.66643 7.70317 6.96512 8.00186 7.33315 8.00186ZM10.6668 12.669C10.6668 13.037 10.3681 13.3357 10 13.3357H7.33315C6.96512 13.3357 6.66643 13.037 6.66643 12.669C6.66643 12.3009 6.96512 12.0022 7.33315 12.0022H10C10.3681 12.0022 10.6668 12.3009 10.6668 12.669Z"    />  </svg>