  <svg viewBox="0 0 20 20" fill="none" xmlns="http://www.w3.org/2000/svg">    <path      d="M3 16.5662C3 18.1397 3.86053 19 5.44807 19H11.9688C13.5564 19 14.4169 18.1397 14.4169 16.5662V15.2794H15.5519C17.1395 15.2794 18 14.4191 18 12.8382V3.43382C18 1.86029 17.1395 1 15.5519 1H9.03116C7.45104 1 6.58309 1.85294 6.58309 3.43382V4.72059H5.44807C3.86795 4.72059 3 5.58088 3 7.15441V16.5662ZM10.7151 3.65441C10.4036 3.65441 10.2033 3.41912 10.2033 3.16176V2.99265C10.2033 2.78676 10.3739 2.50735 10.7151 2.50735H13.868C14.2166 2.50735 14.3872 2.78676 14.3872 2.99265V3.16176C14.3872 3.41912 14.1795 3.65441 13.868 3.65441H10.7151ZM4.773 16.375V7.34559C4.773 6.77941 5.0549 6.47059 5.6632 6.47059H7.58457V9.91177C7.58457 11.1029 8.1632 11.6691 9.35757 11.6691H12.6439V16.375C12.6439 16.9412 12.362 17.25 11.7611 17.25H5.65579C5.0549 17.25 4.773 16.9412 4.773 16.375ZM9.4911 10.2206C9.18694 10.2206 9.03858 10.0809 9.03858 9.77941V6.75735L12.503 10.2206H9.4911Z"    />  </svg>