  <svg viewBox="0 0 20 20" fill="none" xmlns="http://www.w3.org/2000/svg">    <path      d="M5.47494 18C4.65569 18 4 17.3369 4 16.5271L4 3.4729C4 2.65478 4.66401 2 5.47494 2L14.5251 2C15.3383 2 16 2.66077 16 3.4729L16 13.548L13.0166 13.548C12.2034 13.548 11.5417 14.2087 11.5417 15.0209L11.5417 18L5.47494 18ZM9.99999 13.0885C10.3696 13.0885 10.6692 12.788 10.6692 12.4173L10.6692 7.56755L12.3938 9.2974C12.6552 9.55958 13.0789 9.55958 13.3402 9.2974C13.6015 9.0354 13.6015 8.61032 13.3402 8.34832L10.4731 5.47257C10.2119 5.21057 9.78827 5.21039 9.52687 5.47257L6.65992 8.34832C6.39853 8.61032 6.39853 9.0354 6.65992 9.2974C6.92114 9.55958 7.34494 9.55958 7.60616 9.2974L9.33083 7.56755L9.33083 12.4173C9.33083 12.788 9.63038 13.0885 9.99999 13.0885ZM12.4805 18L12.4805 15.0209C12.4805 14.7256 12.7211 14.4854 13.0166 14.4854L16 14.4854L16 14.5188C16 14.6431 15.9505 14.7623 15.8625 14.8502L12.8459 17.8627C12.7578 17.9506 12.6384 18 12.514 18L12.4805 18Z"    />  </svg>