  <svg viewBox="0 0 52 52" fill="none" xmlns="http://www.w3.org/2000/svg">    <rect width="52" height="52" rx="8" fill="black" fill-opacity="0.04" />    <svg viewBox="0 0 30 22" fill="none" xmlns="http://www.w3.org/2000/svg">      <path        d="M20.0001 11C18.7151 11 17.4726 10.4263 16.5001 9.385C15.5544 8.36938 14.9769 7.015 14.8751 5.5725C14.7663 4.03375 15.2357 2.61875 16.1963 1.5875C17.1569 0.55625 18.5001 0 20.0001 0C21.4894 0 22.8363 0.56625 23.7938 1.595C24.7607 2.63375 25.2313 4.04625 25.1226 5.57187C25.0182 7.01625 24.4413 8.37 23.4976 9.38438C22.5276 10.4263 21.2857 11 20.0001 11ZM28.2394 22H11.7613C11.4964 22.0014 11.2346 21.942 10.9963 21.8264C10.7579 21.7108 10.5492 21.542 10.3863 21.3331C10.2135 21.1066 10.0942 20.844 10.0372 20.5649C9.98029 20.2857 9.98724 19.9973 10.0576 19.7213C10.5838 17.6081 11.8876 15.8556 13.8276 14.6537C15.5494 13.5875 17.7413 13 20.0001 13C22.3032 13 24.4376 13.5625 26.1694 14.6281C28.1138 15.8238 29.4194 17.5863 29.9432 19.725C30.0126 20.0013 30.0188 20.2897 29.9612 20.5687C29.9037 20.8477 29.7838 21.11 29.6107 21.3363C29.4479 21.5442 29.2397 21.7121 29.0021 21.8272C28.7644 21.9422 28.5035 22.0014 28.2394 22ZM8.18755 11.25C5.98818 11.25 4.05443 9.205 3.87505 6.69188C3.7863 5.40438 4.18755 4.21375 5.00005 3.34063C5.8038 2.47625 6.93755 2 8.18755 2C9.43755 2 10.5626 2.47875 11.3707 3.34813C12.1894 4.22813 12.5894 5.41625 12.4957 6.69312C12.3163 9.20562 10.3832 11.25 8.18755 11.25ZM12.2913 13.2156C11.1919 12.6781 9.76505 12.4094 8.18818 12.4094C6.34693 12.4094 4.5588 12.8894 3.15255 13.7606C1.55818 14.75 0.485676 16.1906 0.052551 17.93C-0.0108333 18.1802 -0.0168284 18.4415 0.0350143 18.6943C0.0868571 18.9471 0.195195 19.1849 0.351926 19.39C0.500643 19.5809 0.691166 19.7352 0.908843 19.8409C1.12652 19.9467 1.36555 20.0011 1.60755 20H8.54505C8.66215 20 8.77552 19.9589 8.86541 19.8838C8.9553 19.8088 9.016 19.7046 9.03693 19.5894C9.0438 19.55 9.05255 19.5106 9.06255 19.4719C9.59255 17.3431 10.8344 15.5444 12.6694 14.2331C12.7369 14.1845 12.7912 14.1198 12.8274 14.0448C12.8635 13.9699 12.8804 13.8871 12.8765 13.804C12.8726 13.7209 12.848 13.6401 12.805 13.5689C12.7619 13.4977 12.7018 13.4383 12.6301 13.3962C12.5319 13.3387 12.4194 13.2781 12.2913 13.2156Z"      />    </svg>  </svg>