  <svg viewBox="0 0 20 20" fill="none" xmlns="http://www.w3.org/2000/svg">    <path      d="M2 15.6914C2 17.2203 2.77973 18 4.32359 18L12.1676 18C13.7037 18 14.4912 17.2203 14.4912 15.6914L14.4912 14.3536L15.6764 14.3536C17.2203 14.3536 18 13.5738 18 12.0449L18 4.30865C18 2.7721 17.2203 2 15.6764 2L7.90253 2C6.35868 2 5.57895 2.7721 5.57895 4.30865L5.57895 5.64644L4.32359 5.64644C2.77973 5.64644 2 6.41854 2 7.95509L2 15.6914ZM3.27875 15.6455L3.27875 7.99331C3.27875 7.29001 3.66082 6.90014 4.40936 6.90014L12.0819 6.90014C12.8304 6.90014 13.2125 7.29001 13.2125 7.99331L13.2125 15.6455C13.2125 16.3411 12.8304 16.7387 12.0819 16.7387L4.40936 16.7387C3.66082 16.7387 3.27875 16.3411 3.27875 15.6455ZM5.17349 11.8385C5.17349 12.1519 5.4308 12.4042 5.78168 12.4042L7.65302 12.4042L7.65302 14.2007C7.65302 14.56 7.93372 14.8352 8.26121 14.8352C8.5809 14.8352 8.8538 14.56 8.8538 14.2007L8.8538 12.4042L10.7173 12.4042C11.0682 12.4042 11.3255 12.1519 11.3255 11.8385C11.3255 11.5174 11.0682 11.2652 10.7173 11.2652L8.8538 11.2652L8.8538 9.40755C8.8538 9.08648 8.5653 8.80363 8.26121 8.80363C7.93372 8.80363 7.65302 9.08648 7.65302 9.40755L7.65302 11.2652L5.78168 11.2652C5.4308 11.2652 5.17349 11.5174 5.17349 11.8385Z"    />  </svg>