  <svg    width="20"    height="20"    viewBox="0 0 20 20"    fill="none"    xmlns="http://www.w3.org/2000/svg"  >    <path      d="M14.9722 0.00830078H5.0119C2.25218 0.00830078 0 2.26048 0 5.0202V14.9964C0 17.7403 2.25218 19.9924 5.0119 19.9924H14.9881C17.7478 19.9924 20 17.7403 20 14.9805V5.0202C19.9841 2.26048 17.732 0.00830078 14.9722 0.00830078ZM15.7494 7.19307C15.0515 11.0947 11.1657 14.3937 9.99207 15.1391C8.8184 15.9004 7.75575 14.8378 7.35924 14.0448C6.91515 13.1407 5.58287 8.19228 5.23394 7.79577C4.88501 7.3834 3.83822 8.20814 3.83822 8.20814L3.33069 7.542C3.33069 7.542 5.45599 5.0202 7.05789 4.71885C8.78668 4.36992 8.78668 7.31996 9.19905 8.95358C9.59556 10.5396 9.86519 11.4437 10.2141 11.4437C10.563 11.4437 11.2292 10.5555 11.9588 9.20735C12.6883 7.85921 11.927 6.65382 10.4996 7.51028C11.0706 4.11615 16.4473 3.29141 15.7494 7.19307Z"      fill="#19B7EA"    />  </svg>