  <svg    width="20"    height="20"    viewBox="0 0 20 20"    fill="none"    xmlns="http://www.w3.org/2000/svg"  >    <path      d="M14.9093 13.0586V12.4984V11.7248V8.08322V7.30955L15.5063 6.06902L18.4915 3.70802C18.8895 3.37455 19.4865 3.65467 19.4865 4.17489V15.4597C19.4865 15.9799 18.8762 16.26 18.4782 15.9265L14.9093 13.0586Z"      fill="#00AC47"    />    <path d="M5.03209 2L0.213989 6.81061H5.03209V2Z" fill="#EA4335" />    <path      d="M5.03209 6.81055H0.213989V13.0643H5.03209V6.81055Z"      fill="#2684FC"    />    <path      d="M0.213989 13.0645V16.2715C0.213989 17.1535 0.936705 17.8751 1.82003 17.8751H5.03209V13.0645H0.213989Z"      fill="#0066DA"    />    <path      d="M15.5115 3.58514C15.5115 2.71332 14.8041 2 13.9396 2H10.7958H5.0321V6.81061H10.9343V9.93751L15.5115 9.79358V3.58514Z"      fill="#FFBA00"    />    <path      d="M10.9343 13.0644H5.0321V17.875H10.7958H13.9396C14.8041 17.875 15.5115 17.1627 15.5115 16.2922V9.9375H10.9343V13.0644Z"      fill="#00AC47"    />    <path      d="M15.5114 6.08887V13.5453L10.9342 9.93736L15.5114 6.08887Z"      fill="#00832D"    />  </svg>