  <svg viewBox="0 0 20 20" fill="none" xmlns="http://www.w3.org/2000/svg">    <path      fill-rule="evenodd"      clip-rule="evenodd"      d="M10 3.21618L8.2015 6.23766C7.82162 6.87586 7.20475 7.3545 6.46595 7.54507L3.03038 8.43126L5.34998 11.3057C5.81741 11.8849 6.04082 12.6184 5.99027 13.3499L5.73705 17.0142L8.90334 15.6693C9.60508 15.3713 10.3949 15.3713 11.0967 15.6693L14.2629 17.0142L14.0097 13.3499C13.9592 12.6184 14.1826 11.8849 14.65 11.3057L16.9696 8.43126L13.534 7.54507C12.7952 7.3545 12.1784 6.87586 11.7985 6.23766L10 3.21618ZM10.9851 1.57186C10.5312 0.809379 9.46879 0.809381 9.01494 1.57186L6.75144 5.37453C6.59176 5.6428 6.33808 5.83532 6.04447 5.91106L1.88268 6.98457C1.04819 7.19982 0.71989 8.25523 1.27388 8.94173L4.03675 12.3654C4.23167 12.6069 4.32856 12.9185 4.30679 13.2335L3.99816 17.6997C3.93627 18.5952 4.79578 19.2475 5.59202 18.9093L9.56306 17.2225C9.84322 17.1035 10.1568 17.1035 10.4369 17.2225L14.408 18.9093C15.2042 19.2475 16.0637 18.5952 16.0018 17.6997L15.6932 13.2335C15.6714 12.9185 15.7683 12.6069 15.9632 12.3654L18.7261 8.94172C19.2801 8.25523 18.9518 7.19982 18.1173 6.98457L13.9555 5.91106C13.6619 5.83532 13.4082 5.6428 13.2486 5.37453L10.9851 1.57186Z"    />  </svg>