  <svg viewBox="0 0 20 20" fill="none" xmlns="http://www.w3.org/2000/svg">    <path      fill-rule="evenodd"      clip-rule="evenodd"      d="M4.125 7.25C3.50368 7.25 3 6.74632 3 6.125C3 5.50368 3.50368 5 4.125 5H15.875C16.4963 5 17 5.50368 17 6.125C17 6.74632 16.4963 7.25 15.875 7.25L4.125 7.25ZM4.125 11.125C3.50368 11.125 3 10.6213 3 10C3 9.37868 3.50368 8.875 4.125 8.875L15.875 8.875C16.4963 8.875 17 9.37868 17 10C17 10.6213 16.4963 11.125 15.875 11.125L4.125 11.125ZM3 14.125C3 14.7463 3.50368 15.25 4.125 15.25H15.875C16.4963 15.25 17 14.7463 17 14.125C17 13.5037 16.4963 13 15.875 13L4.125 13C3.50368 13 3 13.5037 3 14.125Z"    />  </svg>