  <svg viewBox="0 0 20 20" fill="none" xmlns="http://www.w3.org/2000/svg">    <path      d="M10.0046 19C14.9247 19 19 14.9154 19 9.99536C19 5.0753 14.9154 1 9.99536 1C5.0753 1 1 5.0753 1 9.99536C1 14.9154 5.08458 19 10.0046 19ZM6.04074 10.6173C6.04074 10.4966 6.08716 10.3667 6.18927 10.2553L11.1372 4.06343C11.5271 3.58999 12.1676 3.9149 11.9355 4.49974L10.311 8.85353H13.3559C13.5972 8.85353 13.7829 9.02991 13.7829 9.26199C13.7829 9.37339 13.7272 9.51264 13.6343 9.62403L8.68644 15.8159C8.29654 16.2893 7.65601 15.9644 7.88809 15.3703L9.51264 11.0258H6.46777C6.22641 11.0258 6.04074 10.8494 6.04074 10.6173Z"    />  </svg>