  <svg viewBox="0 0 72 72" fill="none" xmlns="http://www.w3.org/2000/svg">    <path      d="M45.2885 14.4H21.8546C17.5499 14.4 14.7185 17.0376 14.7185 21.6238V31.5327C22.4991 31.5327 28.8756 38.1149 28.8756 46.1228C28.8756 47.8575 28.5533 49.5446 28.0008 51.0891H45.0813C49.5701 51.0891 52.2174 48.4277 52.2174 43.8416V21.6238C52.2174 17.0376 49.7773 14.4 45.2885 14.4ZM55.2559 39.5644L63.0135 46.503C63.8192 47.2159 64.717 47.6674 65.5457 47.6674C67.2491 47.6674 68.4001 46.3842 68.4001 44.507V21.006C68.4001 19.1287 67.2491 17.8456 65.5457 17.8456C64.694 17.8456 63.8192 18.2971 63.0135 19.0099L55.2559 25.9248V39.5644ZM14.7185 57.6C20.7497 57.6 25.837 52.3961 25.837 46.1228C25.837 39.8258 20.8187 34.6456 14.7185 34.6456C8.64138 34.6456 3.6001 39.8495 3.6001 46.1228C3.6001 52.4436 8.64138 57.6 14.7185 57.6ZM13.4064 52.8951C13.0381 52.8951 12.5547 52.7287 12.2785 52.3961L8.11193 47.6911C7.92777 47.501 7.81267 47.0733 7.81267 46.7406C7.81267 45.8852 8.45722 45.2436 9.23988 45.2436C9.7233 45.2436 10.0916 45.4812 10.3218 45.7426L13.3374 49.1169L19.0232 40.9901C19.2764 40.6099 19.7138 40.3485 20.2202 40.3485C20.9798 40.3485 21.6704 40.9901 21.6704 41.8218C21.6704 42.0832 21.5553 42.3921 21.3482 42.701L14.6034 52.3248C14.3732 52.6812 13.9129 52.8951 13.4064 52.8951Z"    />  </svg>