  <svg viewBox="0 0 20 20" fill="none" xmlns="http://www.w3.org/2000/svg">    <path      d="M15.2084 9.1665C15.5248 9.1665 15.7863 9.40163 15.8276 9.7067L15.8334 9.7915V10.2082C15.8334 13.1743 13.5375 15.6043 10.6258 15.8179L10.625 17.7082C10.625 18.0533 10.3452 18.3332 10 18.3332C9.68361 18.3332 9.42211 18.098 9.38073 17.793L9.37502 17.7082L9.37504 15.818C6.52771 15.6095 4.26905 13.2815 4.17007 10.4051L4.16669 10.2082V9.7915C4.16669 9.44633 4.44651 9.1665 4.79169 9.1665C5.1081 9.1665 5.3696 9.40163 5.41098 9.7067L5.41669 9.7915V10.2082C5.41669 12.564 7.27873 14.4849 9.61135 14.5795L9.79169 14.5832H10.2084C12.5642 14.5832 14.4851 12.7211 14.5797 10.3885L14.5834 10.2082V9.7915C14.5834 9.44633 14.8632 9.1665 15.2084 9.1665ZM10 1.6665C11.841 1.6665 13.3334 3.15889 13.3334 4.99984V9.99984C13.3334 11.8408 11.841 13.3332 10 13.3332C8.15907 13.3332 6.66669 11.8408 6.66669 9.99984V4.99984C6.66669 3.15889 8.15907 1.6665 10 1.6665Z"    />  </svg>