  <svg viewBox="0 0 20 20" fill="none" xmlns="http://www.w3.org/2000/svg">    <path      d="M2.62501 11.1668C2.30859 11.1668 2.04709 11.4019 2.00571 11.707L2 11.7918V15.9585C2 17.4027 3.13039 18.5829 4.55468 18.6626L4.70837 18.6669L7.59829 18.667C8.15137 18.3457 6.78722 17.9166 6.54392 17.4177L4.70837 17.4169C3.94321 17.4169 3.31569 16.8276 3.25485 16.0781L3.25002 15.9585V11.7918C3.25002 11.4466 2.97019 11.1668 2.62501 11.1668ZM8.54177 5.8334C7.04598 5.8334 5.8334 7.04598 5.8334 8.54177V15.9585C5.8334 17.4543 6.04598 18.6669 7.54177 18.6669H15.9585C17.4543 18.6669 18.6669 17.4543 18.6669 15.9585V8.54177C18.6669 7.04598 17.4543 5.8334 15.9585 5.8334H8.54177ZM8.54177 7.08342H15.9585C16.7639 7.08342 17.4169 7.73634 17.4169 8.54177V15.9585C17.4169 16.7639 16.7639 17.4169 15.9585 17.4169H8.54177C7.73635 17.4169 7.08342 16.7639 7.08342 15.9585V8.54177C7.08342 7.73634 7.73635 7.08342 8.54177 7.08342ZM4.70837 2C3.26416 2 2.08396 3.13039 2.00429 4.55468L2 4.70837V8.87508C2 9.22026 2.27983 9.50009 2.62501 9.50009C2.94142 9.50009 3.20292 9.26496 3.24431 8.95989L3.25002 8.87508V4.70837C3.25002 3.94321 3.83928 3.31569 4.58876 3.25485L4.70837 3.25002H8.87508C9.22027 3.25002 9.50009 2.97019 9.50009 2.62501C9.50009 2.30859 9.26496 2.04709 8.95989 2.00571L8.87508 2H4.70837ZM11.7918 2C11.4466 2 11.1668 2.27983 11.1668 2.62501C11.1668 2.94142 11.4019 3.20292 11.707 3.24431L11.7918 3.25002H15.9585C16.7237 3.25002 17.3512 3.83928 17.412 4.58876L17.4169 4.70837L17.4169 6.54351C17.9161 6.78681 18.3456 7.15112 18.667 7.59829L18.6669 4.70837C18.6669 3.26416 17.5365 2.08396 16.1122 2.00429L15.9585 2H11.7918Z"      stroke-width="0.5"    />    <path      fill-rule="evenodd"      clip-rule="evenodd"      d="M11.2231 14.1507L10.6942 12.0639L15.0022 14.546C15.3162 14.7269 15.7211 14.612 15.9073 14.2903C16.0934 13.9685 15.9906 13.5612 15.6766 13.3802L11.3686 10.8982L13.444 10.312C13.7979 10.212 14.011 9.84363 13.9209 9.4878C13.8307 9.13197 13.4718 8.92519 13.1179 9.02516L9.49744 10.0479C9.32095 10.0977 9.17897 10.2149 9.09264 10.3641C9.00631 10.5133 8.97564 10.6946 9.02062 10.872L9.94328 14.5122C10.0335 14.868 10.3924 15.0748 10.7463 14.9748C11.1002 14.8749 11.3133 14.5065 11.2231 14.1507Z"    />  </svg>