  <svg viewBox="0 0 20 20" fill="none" xmlns="http://www.w3.org/2000/svg">    <path      d="M4.13876 18C5.08788 18 7.41906 17.0106 8.79278 16.0694C8.92599 15.9728 9.05088 15.9326 9.16744 15.9407C9.26734 15.9487 9.36725 15.9487 9.45883 15.9487C15.1369 15.9487 19 12.8678 19 8.97436C19 5.11312 15.0037 2 10 2C5.00463 2 1 5.11312 1 8.97436C1 11.4198 2.54857 13.5757 5.08788 14.8949C5.22109 14.9593 5.26272 15.0719 5.18779 15.2006C4.74653 15.9085 3.96392 16.7451 3.6642 17.1312C3.3395 17.5254 3.52266 18 4.13876 18Z"    />  </svg>