  <svg viewBox="0 0 20 20" fill="none" xmlns="http://www.w3.org/2000/svg">    <path      d="M18.9366 11.8202L18.7263 12.7088C18.5292 13.5416 17.6916 14.089 16.7691 13.988L14.9331 13.7872C14.1331 13.6996 13.4691 13.1434 13.2915 12.412L12.7973 10.3766C11.9682 10.033 11.0465 9.86681 10.0324 9.8782C9.01832 9.88958 8.06856 10.0767 7.18317 10.4396L6.76168 12.3302C6.60192 13.0468 5.96155 13.5726 5.17261 13.635L3.33469 13.7803C2.41762 13.8529 1.56176 13.2826 1.33244 12.4463L1.08668 11.5499C0.842055 10.6578 1.12355 9.72789 1.82566 9.10881C3.48323 7.64727 6.18329 6.94543 9.92583 7.00331C13.6738 7.06127 16.4026 7.84921 18.1121 9.36716C18.8315 10.0059 19.1451 10.9391 18.9366 11.8202Z"    />  </svg>