  <svg viewBox="0 0 20 20" fill="none" xmlns="http://www.w3.org/2000/svg">    <g clip-path="url(#clip0)">      <path        d="M5.54594 11.6689L4.989 13.7481L2.95341 13.7911C2.34506 12.6628 2 11.3718 2 9.99993C2 8.67333 2.32263 7.42233 2.8945 6.3208H2.89494L4.70719 6.65305L5.50106 8.45443C5.33491 8.93883 5.24434 9.45883 5.24434 9.99993C5.24441 10.5872 5.35078 11.1498 5.54594 11.6689Z"        fill="#FBBB00"      />      <path        d="M17.8602 8.50537C17.9521 8.98931 18 9.48909 18 9.99987C18 10.5726 17.9398 11.1313 17.8251 11.6702C17.4356 13.5041 16.418 15.1054 15.0084 16.2386L15.0079 16.2381L12.7253 16.1217L12.4022 14.1049C13.3376 13.5564 14.0686 12.6979 14.4537 11.6702H10.1759V8.50537H14.5161H17.8602Z"        fill="#518EF8"      />      <path        d="M15.0079 16.2382L15.0084 16.2386C13.6374 17.3406 11.8958 17.9999 10 17.9999C6.95343 17.9999 4.30465 16.2971 2.95343 13.7911L5.54596 11.6689C6.22156 13.472 7.9609 14.7555 10 14.7555C10.8765 14.7555 11.6976 14.5186 12.4022 14.105L15.0079 16.2382Z"        fill="#28B446"      />      <path        d="M15.1063 3.84175L12.5147 5.9635C11.7855 5.50769 10.9235 5.24437 9.99997 5.24437C7.91469 5.24437 6.14281 6.58678 5.50106 8.4545L2.89491 6.32088H2.89447C4.22591 3.75384 6.90809 2 9.99997 2C11.9411 2 13.7208 2.69144 15.1063 3.84175Z"        fill="#F14336"      />    </g>    <defs>      <clipPath id="clip0">        <rect width="16" height="16" fill="white" transform="translate(2 2)" />      </clipPath>    </defs>  </svg>