  <svg viewBox="0 0 20 20" fill="none" xmlns="http://www.w3.org/2000/svg">    <path      fill-rule="evenodd"      clip-rule="evenodd"      d="M19 9.99536C19 14.9247 14.9247 19 10.0046 19C5.08458 19 1 14.9247 1 9.99536C1 5.0753 5.0753 1 9.99536 1C14.9154 1 19 5.0753 19 9.99536ZM2.61526 9.99539C2.61526 14.1078 5.90149 17.394 10.0046 17.394C14.1078 17.394 17.4126 14.1078 17.4033 9.99539C17.394 5.89224 14.0985 2.59673 9.99536 2.59673C5.89221 2.59673 2.61526 5.89224 2.61526 9.99539ZM9.81908 11.787C10.274 11.787 10.5524 11.5085 10.5617 11.165V11.0536C10.571 10.5802 10.8681 10.2646 11.4622 9.87469C12.3255 9.3177 12.9104 8.79785 12.9104 7.76742C12.9104 6.30068 11.6107 5.50233 10.0883 5.50233C8.58442 5.50233 7.58184 6.20785 7.3312 7.01549C7.2755 7.16402 7.24765 7.31255 7.24765 7.46108C7.24765 7.86025 7.57256 8.09233 7.89747 8.09233C8.30823 8.09233 8.44474 7.91781 8.63387 7.67602L8.63387 7.67601C8.67555 7.62272 8.71979 7.56617 8.77008 7.50749C9.05786 7.04333 9.46632 6.76484 10.0233 6.76484C10.7938 6.76484 11.2858 7.20115 11.2858 7.84168C11.2858 8.41724 10.9238 8.70502 10.1626 9.23416C9.5313 9.67046 9.06714 10.1346 9.06714 10.9701V11.0722C9.06714 11.5457 9.33636 11.787 9.81908 11.787ZM10.7752 13.5043C10.7752 14.0335 10.3203 14.4326 9.80043 14.4326C9.27129 14.4326 8.8257 14.0242 8.8257 13.5043C8.8257 12.9845 9.26201 12.576 9.80043 12.576C10.3296 12.576 10.7752 12.9752 10.7752 13.5043Z"    />    <path      d="M17.4033 9.99539L17.5283 9.9951V9.9951L17.4033 9.99539ZM10.5617 11.165L10.6867 11.1684V11.165H10.5617ZM10.5617 11.0536L10.4367 11.0512V11.0536H10.5617ZM11.4622 9.87469L11.3944 9.76965L11.3936 9.77019L11.4622 9.87469ZM7.3312 7.01549L7.44844 7.05945L7.45058 7.05254L7.3312 7.01549ZM8.63387 7.67602L8.53625 7.59793L8.53541 7.599L8.63387 7.67602ZM8.63387 7.67601L8.73149 7.7541L8.73233 7.75302L8.63387 7.67601ZM8.77008 7.50749L8.86499 7.58884L8.87125 7.58154L8.87632 7.57336L8.77008 7.50749ZM10.1626 9.23416L10.2336 9.33698L10.2339 9.33679L10.1626 9.23416ZM10.0046 19.125C14.9938 19.125 19.125 14.9937 19.125 9.99536H18.875C18.875 14.8558 14.8556 18.875 10.0046 18.875V19.125ZM0.875 9.99536C0.875 14.9938 5.01563 19.125 10.0046 19.125V18.875C5.15353 18.875 1.125 14.8556 1.125 9.99536H0.875ZM9.99536 0.875C5.00626 0.875 0.875 5.00626 0.875 9.99536H1.125C1.125 5.14433 5.14433 1.125 9.99536 1.125V0.875ZM19.125 9.99536C19.125 5.00609 14.9843 0.875 9.99536 0.875V1.125C14.8466 1.125 18.875 5.1445 18.875 9.99536H19.125ZM10.0046 17.269C5.97063 17.269 2.74026 14.0389 2.74026 9.99539H2.49026C2.49026 14.1767 5.83236 17.519 10.0046 17.519V17.269ZM17.2783 9.99567C17.2874 14.0385 14.0391 17.269 10.0046 17.269V17.519C14.1765 17.519 17.5377 14.1771 17.5283 9.9951L17.2783 9.99567ZM9.99536 2.72173C14.0294 2.72173 17.2692 5.96128 17.2783 9.99567L17.5283 9.9951C17.5189 5.82319 14.1676 2.47173 9.99536 2.47173V2.72173ZM2.74026 9.99539C2.74026 5.96086 5.96166 2.72173 9.99536 2.72173V2.47173C5.82277 2.47173 2.49026 5.82361 2.49026 9.99539H2.74026ZM10.4368 11.1617C10.4296 11.4263 10.218 11.662 9.81908 11.662V11.912C10.3299 11.912 10.6753 11.5907 10.6867 11.1684L10.4368 11.1617ZM10.4367 11.0536V11.165H10.6867V11.0536H10.4367ZM11.3936 9.77019C10.7961 10.1623 10.4474 10.5097 10.4368 11.0512L10.6867 11.0561C10.6947 10.6507 10.94 10.3669 11.5308 9.9792L11.3936 9.77019ZM12.7854 7.76742C12.7854 8.25559 12.648 8.61611 12.4112 8.92209C12.1709 9.23264 11.8243 9.49234 11.3944 9.76965L11.53 9.97973C11.9634 9.70006 12.3409 9.42134 12.6089 9.0751C12.8804 8.7243 13.0354 8.30967 13.0354 7.76742H12.7854ZM10.0883 5.62733C10.8294 5.62733 11.5069 5.82187 11.9957 6.18518C12.481 6.54589 12.7854 7.07583 12.7854 7.76742H13.0354C13.0354 6.99227 12.6899 6.38967 12.1448 5.98453C11.6032 5.58197 10.8696 5.37733 10.0883 5.37733V5.62733ZM7.45058 7.05254C7.67919 6.31591 8.61669 5.62733 10.0883 5.62733V5.37733C8.55215 5.37733 7.4845 6.0998 7.21182 6.97844L7.45058 7.05254ZM7.37265 7.46108C7.37265 7.32853 7.39744 7.19483 7.44824 7.05938L7.21416 6.9716C7.15356 7.1332 7.12265 7.29656 7.12265 7.46108H7.37265ZM7.89747 7.96733C7.6269 7.96733 7.37265 7.77739 7.37265 7.46108H7.12265C7.12265 7.94311 7.51821 8.21733 7.89747 8.21733V7.96733ZM8.53541 7.599C8.43819 7.7233 8.3686 7.81049 8.27871 7.87133C8.19442 7.92838 8.08338 7.96733 7.89747 7.96733V8.21733C8.12232 8.21733 8.28491 8.16901 8.41885 8.07836C8.54718 7.9915 8.64042 7.87053 8.73232 7.75303L8.53541 7.599ZM8.53626 7.59792L8.53626 7.59793L8.73147 7.75411L8.73148 7.7541L8.53626 7.59792ZM8.67518 7.42614C8.6228 7.48725 8.57693 7.54592 8.53541 7.599L8.73233 7.75302C8.77418 7.69952 8.81678 7.64509 8.86499 7.58884L8.67518 7.42614ZM10.0233 6.63984C9.41515 6.63984 8.96992 6.94796 8.66385 7.44162L8.87632 7.57336C9.14581 7.13871 9.51748 6.88984 10.0233 6.88984V6.63984ZM11.4108 7.84168C11.4108 7.48722 11.2736 7.18267 11.0251 6.9684C10.7783 6.75556 10.4315 6.63984 10.0233 6.63984V6.88984C10.3856 6.88984 10.67 6.99228 10.8619 7.15772C11.052 7.32174 11.1608 7.55561 11.1608 7.84168H11.4108ZM10.2339 9.33679C10.6118 9.07413 10.9059 8.86147 11.1033 8.63811C11.3075 8.40711 11.4108 8.16237 11.4108 7.84168H11.1608C11.1608 8.09655 11.0831 8.28348 10.916 8.47254C10.7421 8.66924 10.4746 8.86505 10.0912 9.13152L10.2339 9.33679ZM9.19214 10.9701C9.19214 10.5782 9.30018 10.2786 9.48011 10.0247C9.66232 9.76768 9.92181 9.5525 10.2336 9.33698L10.0915 9.13133C9.77204 9.35212 9.48383 9.58717 9.27615 9.88015C9.06619 10.1763 8.94214 10.5265 8.94214 10.9701H9.19214ZM9.19214 11.0722V10.9701H8.94214V11.0722H9.19214ZM9.81908 11.662C9.59698 11.662 9.44428 11.6065 9.34753 11.5159C9.25218 11.4266 9.19214 11.2854 9.19214 11.0722H8.94214C8.94214 11.3325 9.01672 11.5486 9.17665 11.6984C9.33519 11.8468 9.55845 11.912 9.81908 11.912V11.662ZM9.80043 14.5576C10.3804 14.5576 10.9002 14.1111 10.9002 13.5043H10.6502C10.6502 13.9559 10.2601 14.3076 9.80043 14.3076V14.5576ZM8.7007 13.5043C8.7007 14.1003 9.2095 14.5576 9.80043 14.5576V14.3076C9.33308 14.3076 8.9507 13.9481 8.9507 13.5043H8.7007ZM9.80043 12.451C9.19942 12.451 8.7007 12.9092 8.7007 13.5043H8.9507C8.9507 13.0598 9.32459 12.701 9.80043 12.701V12.451ZM10.9002 13.5043C10.9002 12.8983 10.3905 12.451 9.80043 12.451V12.701C10.2686 12.701 10.6502 13.0521 10.6502 13.5043H10.9002Z"    />  </svg>