  <svg viewBox="0 0 20 20" fill="none" xmlns="http://www.w3.org/2000/svg">    <path      d="M15.4678 17.8226C16.0989 17.6766 16.7219 17.2921 16.7219 16.5464C16.7219 16.2465 16.634 16.0389 16.5302 15.8621C16.4663 15.7622 16.4743 15.6853 16.5701 15.6468C17.0734 15.4316 17.4968 15.001 17.4968 14.3783C17.4968 14.0246 17.4009 13.7094 17.2092 13.4864C17.1213 13.3711 17.1453 13.2788 17.2811 13.2019C17.6565 12.9944 17.9041 12.5407 17.9041 12.041C17.9041 11.6796 17.7763 11.2875 17.5607 11.0953C17.4329 10.9954 17.4568 10.9185 17.6006 10.8032C17.8562 10.611 18 10.2419 18 9.80368C18 9.05022 17.4009 8.43515 16.6021 8.43515H13.7424C13.0155 8.43515 12.5282 8.0738 12.5282 7.50486C12.5282 6.44387 13.8942 4.52947 13.8942 3.14557C13.8942 2.43055 13.4069 2 12.7678 2C12.1927 2 11.9051 2.38442 11.5936 2.97642C10.3954 5.2368 8.78183 7.06663 7.55167 8.62736C6.50524 9.97283 6.002 11.0953 5.97803 12.9405C5.9301 15.7929 8.32651 17.961 12.0969 17.9918L13.2072 17.9995C14.2536 18.0072 15.0285 17.9303 15.4678 17.8226ZM2 13.002C2 15.3162 3.46181 17.246 5.4668 17.246H6.88068C5.45881 16.2235 4.79581 14.6781 4.82776 12.9252C4.85971 10.9877 5.65052 9.57303 6.36945 8.72731H5.16326C3.35796 8.72731 2 10.6033 2 13.002Z"    />  </svg>