  <svg viewBox="0 0 20 20" fill="none" xmlns="http://www.w3.org/2000/svg">    <path      d="M11.7872 16.8225C15.7396 16.8225 19 13.6962 19 9.91468C19 6.12628 15.7325 3 11.78 3C8.14863 3 5.09513 5.64164 4.63139 9C6.90725 8.9727 8.8692 10.5495 9.283 12.6519C10.0178 12.3515 10.874 12.1809 11.7872 12.1809C13.5565 12.1809 15.0832 12.8089 16.0392 13.8328C14.9834 14.9044 13.3995 15.5529 11.78 15.5529C10.8312 15.5529 9.91795 15.3345 9.10464 14.9386C8.96195 15.3413 8.75505 15.7099 8.49822 16.0512C9.48989 16.5427 10.6029 16.8225 11.7872 16.8225ZM11.78 11.0137C10.3888 11.0137 9.33294 9.85324 9.33294 8.41297C9.33294 7.05461 10.4102 5.86689 11.78 5.86689C13.1498 5.86689 14.2342 7.05461 14.2271 8.41297C14.2271 9.85324 13.1712 11.0137 11.78 11.0137ZM4.6742 17C6.69322 17 8.35553 15.4164 8.35553 13.4778C8.35553 11.5529 6.69322 9.96246 4.6742 9.96246C2.66231 9.96246 1 11.5529 1 13.4778C1 15.4164 2.66231 17 4.6742 17ZM4.24614 15.5461C4.11772 15.5461 3.95363 15.4983 3.84661 15.3891L2.50535 13.9829C2.43401 13.9147 2.38407 13.7782 2.38407 13.6621C2.38407 13.3754 2.6195 13.1775 2.89061 13.1775C3.0547 13.1775 3.17598 13.2389 3.26873 13.3345L4.22473 14.3311L6.044 11.9147C6.13674 11.7918 6.28656 11.7031 6.46492 11.7031C6.74316 11.7031 6.97146 11.9147 6.97146 12.1809C6.97146 12.2696 6.94292 12.372 6.87158 12.4608L4.66706 15.3686C4.58145 15.4778 4.42449 15.5461 4.24614 15.5461Z"    />  </svg>