  <svg viewBox="0 0 20 20" fill="none" xmlns="http://www.w3.org/2000/svg">    <path      fill-rule="evenodd"      clip-rule="evenodd"      d="M10 3.59275C9.6895 3.59275 9.4375 3.34075 9.4375 3.03025V1.5625C9.4375 1.252 9.6895 1 10 1C10.3105 1 10.5625 1.252 10.5625 1.5625V3.03025C10.5625 3.34075 10.3105 3.59275 10 3.59275ZM14.9282 5.63426C14.7842 5.63426 14.6402 5.57951 14.5307 5.46926C14.311 5.24951 14.311 4.89326 14.5307 4.67351L15.5687 3.63551C15.7885 3.41576 16.1447 3.41576 16.3645 3.63551C16.5842 3.85526 16.5842 4.21151 16.3645 4.43126L15.3265 5.46926C15.2162 5.57876 15.0722 5.63426 14.9282 5.63426ZM16.9698 10.5625H18.4376C18.7481 10.5625 19.0001 10.3105 19.0001 10C19.0001 9.6895 18.7481 9.4375 18.4376 9.4375H16.9698C16.6593 9.4375 16.4073 9.6895 16.4073 10C16.4073 10.3105 16.6593 10.5625 16.9698 10.5625ZM15.9662 16.5287C15.8222 16.5287 15.6782 16.474 15.5687 16.3637L14.5307 15.3257C14.311 15.106 14.311 14.7497 14.5307 14.53C14.7505 14.3102 15.1067 14.3102 15.3265 14.53L16.3645 15.568C16.5842 15.7877 16.5842 16.144 16.3645 16.3637C16.2542 16.474 16.1102 16.5287 15.9662 16.5287ZM3.63629 16.3637C3.74579 16.474 3.88979 16.5287 4.03379 16.5287C4.17779 16.5287 4.32179 16.474 4.43204 16.3637L5.47004 15.3257C5.68979 15.106 5.68979 14.7497 5.47004 14.53C5.25029 14.3102 4.89404 14.3102 4.67429 14.53L3.63629 15.568C3.41654 15.7877 3.41654 16.144 3.63629 16.3637ZM3.03025 10.5625H1.5625C1.252 10.5625 1 10.3105 1 10C1 9.6895 1.252 9.4375 1.5625 9.4375H3.03025C3.34075 9.4375 3.59275 9.6895 3.59275 10C3.59275 10.3105 3.34075 10.5625 3.03025 10.5625ZM4.67429 5.46926C4.78379 5.57951 4.92779 5.63426 5.07179 5.63426C5.21579 5.63426 5.35904 5.57876 5.47004 5.46926C5.68979 5.24951 5.68979 4.89326 5.47004 4.67351L4.43204 3.63551C4.21229 3.41576 3.85604 3.41576 3.63629 3.63551C3.41654 3.85526 3.41654 4.21151 3.63629 4.43126L4.67429 5.46926ZM12.25 16.75V17.6875C12.25 18.4075 11.6575 19 10.9375 19H9.06251C8.43251 19 7.75001 18.52 7.75001 17.47V16.75H12.25ZM8.87502 4.86997C10.4575 4.53247 12.0775 4.92247 13.3075 5.91997C14.545 6.92497 15.25 8.40997 15.25 9.99997C15.25 11.62 14.515 13.12 13.2475 14.125C12.73 14.53 12.3925 15.055 12.2875 15.625V15.6325C12.2875 15.6325 12.2875 15.6325 12.2875 15.6325V15.6325C12.2725 15.625 12.265 15.625 12.25 15.625H12.2566C12.2546 15.625 12.2524 15.625 12.25 15.625H7.75002L7.74241 15.625H7.7501C7.7351 15.625 7.7126 15.625 7.6976 15.6325V15.6324L7.69752 15.6325V15.625C7.59252 15.0325 7.28502 14.5225 6.84252 14.1925C5.20752 12.955 4.44252 10.93 4.86252 8.88997C5.27502 6.90247 6.88752 5.28247 8.87502 4.86997ZM12.25 9.81247C12.25 10.12 12.505 10.375 12.8125 10.375C13.12 10.375 13.375 10.12 13.375 9.81247C13.375 8.05747 11.9425 6.62497 10.1875 6.62497C9.88002 6.62497 9.62502 6.87997 9.62502 7.18747C9.62502 7.49497 9.88002 7.74997 10.1875 7.74997C11.3275 7.74997 12.25 8.67247 12.25 9.81247Z"    />  </svg>