  <svg viewBox="0 0 20 20" fill="none" xmlns="http://www.w3.org/2000/svg">    <path      d="M9.01494 1.57186C9.46879 0.809381 10.5312 0.809379 10.9851 1.57186L13.2486 5.37453C13.4082 5.6428 13.6619 5.83532 13.9555 5.91106L18.1173 6.98457C18.9518 7.19982 19.2801 8.25523 18.7261 8.94172L15.9632 12.3654C15.7683 12.6069 15.6714 12.9185 15.6932 13.2335L16.0018 17.6997C16.0637 18.5952 15.2042 19.2475 14.408 18.9093L10.4369 17.2225C10.1568 17.1035 9.84322 17.1035 9.56307 17.2225L5.59202 18.9093C4.79578 19.2475 3.93627 18.5952 3.99816 17.6997L4.30679 13.2335C4.32856 12.9185 4.23167 12.6069 4.03675 12.3654L1.27388 8.94173C0.71989 8.25523 1.04819 7.19982 1.88268 6.98457L6.04447 5.91106C6.33808 5.83532 6.59176 5.6428 6.75144 5.37453L9.01494 1.57186Z"    />  </svg>