  <svg viewBox="0 0 20 20" fill="none" xmlns="http://www.w3.org/2000/svg">    <path      d="M14.5251 2C15.3443 2 16 2.66309 16 3.4729V16.5271C16 17.3452 15.336 18 14.5251 18H5.47494C4.66168 18 4 17.3392 4 16.5271V6.45203H6.98338C7.79663 6.45203 8.45832 5.79126 8.45832 4.97913V2H14.5251ZM12.867 15.2865H7.13301C6.7634 15.2865 6.46384 15.5803 6.46384 15.9427C6.46384 16.3051 6.7634 16.599 7.13301 16.599H12.867C13.2366 16.599 13.5361 16.3051 13.5361 15.9427C13.5361 15.5803 13.2366 15.2865 12.867 15.2865ZM10 5.9115C9.6304 5.9115 9.33084 6.21196 9.33084 6.58268V11.4325L7.60617 9.7026C7.34478 9.44042 6.92115 9.44042 6.65976 9.7026C6.39854 9.9646 6.39854 10.3897 6.65976 10.6517L9.52689 13.5274C9.7881 13.7894 10.2117 13.7896 10.4731 13.5274L13.3401 10.6517C13.6015 10.3897 13.6015 9.9646 13.3401 9.7026C13.0789 9.44042 12.6551 9.44042 12.3938 9.7026L10.6692 11.4325V6.58268C10.6692 6.21196 10.3696 5.9115 10 5.9115ZM7.51952 2V4.97913C7.51952 5.27441 7.27895 5.51465 6.98338 5.51465H4V5.4812C4 5.35693 4.04951 5.23767 4.13752 5.14978L7.15414 2.13733C7.24216 2.04944 7.36158 2 7.48602 2H7.51952Z"    />  </svg>