  <svg viewBox="0 0 20 20" fill="none" xmlns="http://www.w3.org/2000/svg">    <path      fill-rule="evenodd"      clip-rule="evenodd"      d="M5 4.16667C4.53977 4.16667 4.16667 4.53977 4.16667 5V6.66667C4.16667 7.1269 3.79357 7.5 3.33333 7.5C2.8731 7.5 2.5 7.1269 2.5 6.66667V5C2.5 3.61929 3.61929 2.5 5 2.5H6.66667C7.1269 2.5 7.5 2.8731 7.5 3.33333C7.5 3.79357 7.1269 4.16667 6.66667 4.16667H5ZM5 15.8333C4.53977 15.8333 4.16667 15.4602 4.16667 15V13.3333C4.16667 12.8731 3.79357 12.5 3.33333 12.5C2.8731 12.5 2.5 12.8731 2.5 13.3333V15C2.5 16.3807 3.61929 17.5 5 17.5H6.66667C7.1269 17.5 7.5 17.1269 7.5 16.6667C7.5 16.2064 7.1269 15.8333 6.66667 15.8333H5ZM15 4.16667C15.4602 4.16667 15.8333 4.53977 15.8333 5V6.66667C15.8333 7.1269 16.2064 7.5 16.6667 7.5C17.1269 7.5 17.5 7.1269 17.5 6.66667V5C17.5 3.61929 16.3807 2.5 15 2.5H13.3333C12.8731 2.5 12.5 2.8731 12.5 3.33333C12.5 3.79357 12.8731 4.16667 13.3333 4.16667H15ZM15 15.8333C15.4602 15.8333 15.8333 15.4602 15.8333 15V13.3333C15.8333 12.8731 16.2064 12.5 16.6667 12.5C17.1269 12.5 17.5 12.8731 17.5 13.3333V15C17.5 16.3807 16.3807 17.5 15 17.5H13.3333C12.8731 17.5 12.5 17.1269 12.5 16.6667C12.5 16.2064 12.8731 15.8333 13.3333 15.8333H15Z"    />    <path      d="M4.41667 5C4.41667 4.67784 4.67784 4.41667 5 4.41667V3.91667C4.4017 3.91667 3.91667 4.4017 3.91667 5H4.41667ZM4.41667 6.66667V5H3.91667V6.66667H4.41667ZM3.33333 7.75C3.93164 7.75 4.41667 7.26497 4.41667 6.66667H3.91667C3.91667 6.98883 3.6555 7.25 3.33333 7.25V7.75ZM2.25 6.66667C2.25 7.26497 2.73503 7.75 3.33333 7.75V7.25C3.01117 7.25 2.75 6.98883 2.75 6.66667H2.25ZM2.25 5V6.66667H2.75V5H2.25ZM5 2.25C3.48122 2.25 2.25 3.48122 2.25 5H2.75C2.75 3.75736 3.75736 2.75 5 2.75V2.25ZM6.66667 2.25H5V2.75H6.66667V2.25ZM7.75 3.33333C7.75 2.73503 7.26497 2.25 6.66667 2.25V2.75C6.98883 2.75 7.25 3.01117 7.25 3.33333H7.75ZM6.66667 4.41667C7.26497 4.41667 7.75 3.93164 7.75 3.33333H7.25C7.25 3.6555 6.98883 3.91667 6.66667 3.91667V4.41667ZM5 4.41667H6.66667V3.91667H5V4.41667ZM3.91667 15C3.91667 15.5983 4.4017 16.0833 5 16.0833V15.5833C4.67783 15.5833 4.41667 15.3222 4.41667 15H3.91667ZM3.91667 13.3333V15H4.41667V13.3333H3.91667ZM3.33333 12.75C3.6555 12.75 3.91667 13.0112 3.91667 13.3333H4.41667C4.41667 12.735 3.93163 12.25 3.33333 12.25V12.75ZM2.75 13.3333C2.75 13.0112 3.01117 12.75 3.33333 12.75V12.25C2.73503 12.25 2.25 12.735 2.25 13.3333H2.75ZM2.75 15V13.3333H2.25V15H2.75ZM5 17.25C3.75736 17.25 2.75 16.2427 2.75 15H2.25C2.25 16.5188 3.48122 17.75 5 17.75V17.25ZM6.66667 17.25H5V17.75H6.66667V17.25ZM7.25 16.6667C7.25 16.9888 6.98883 17.25 6.66667 17.25V17.75C7.26497 17.75 7.75 17.265 7.75 16.6667H7.25ZM6.66667 16.0833C6.98883 16.0833 7.25 16.3445 7.25 16.6667H7.75C7.75 16.0683 7.26497 15.5833 6.66667 15.5833V16.0833ZM5 16.0833H6.66667V15.5833H5V16.0833ZM16.0833 5C16.0833 4.4017 15.5983 3.91667 15 3.91667V4.41667C15.3222 4.41667 15.5833 4.67783 15.5833 5H16.0833ZM16.0833 6.66667V5H15.5833V6.66667H16.0833ZM16.6667 7.25C16.3445 7.25 16.0833 6.98883 16.0833 6.66667H15.5833C15.5833 7.26497 16.0683 7.75 16.6667 7.75V7.25ZM17.25 6.66667C17.25 6.98883 16.9888 7.25 16.6667 7.25V7.75C17.265 7.75 17.75 7.26497 17.75 6.66667H17.25ZM17.25 5V6.66667H17.75V5H17.25ZM15 2.75C16.2427 2.75 17.25 3.75736 17.25 5H17.75C17.75 3.48122 16.5188 2.25 15 2.25V2.75ZM13.3333 2.75H15V2.25H13.3333V2.75ZM12.75 3.33333C12.75 3.01117 13.0112 2.75 13.3333 2.75V2.25C12.735 2.25 12.25 2.73503 12.25 3.33333H12.75ZM13.3333 3.91667C13.0112 3.91667 12.75 3.6555 12.75 3.33333H12.25C12.25 3.93163 12.735 4.41667 13.3333 4.41667V3.91667ZM15 3.91667H13.3333V4.41667H15V3.91667ZM15.5833 15C15.5833 15.3222 15.3222 15.5833 15 15.5833V16.0833C15.5983 16.0833 16.0833 15.5983 16.0833 15H15.5833ZM15.5833 13.3333V15H16.0833V13.3333H15.5833ZM16.6667 12.25C16.0683 12.25 15.5833 12.735 15.5833 13.3333H16.0833C16.0833 13.0112 16.3445 12.75 16.6667 12.75V12.25ZM17.75 13.3333C17.75 12.735 17.265 12.25 16.6667 12.25V12.75C16.9888 12.75 17.25 13.0112 17.25 13.3333H17.75ZM17.75 15V13.3333H17.25V15H17.75ZM15 17.75C16.5188 17.75 17.75 16.5188 17.75 15H17.25C17.25 16.2427 16.2427 17.25 15 17.25V17.75ZM13.3333 17.75H15V17.25H13.3333V17.75ZM12.25 16.6667C12.25 17.265 12.735 17.75 13.3333 17.75V17.25C13.0112 17.25 12.75 16.9888 12.75 16.6667H12.25ZM13.3333 15.5833C12.735 15.5833 12.25 16.0683 12.25 16.6667H12.75C12.75 16.3445 13.0112 16.0833 13.3333 16.0833V15.5833ZM15 15.5833H13.3333V16.0833H15V15.5833Z"    />  </svg>