  <svg viewBox="0 0 20 20" fill="none" xmlns="http://www.w3.org/2000/svg">    <path      d="M5.27974 18H13.7122C15.1511 18 15.963 17.2249 15.963 15.8171V11.3959H16.0032C16.6624 11.1903 17 10.6209 17 9.7825V7.92388C17 6.85615 16.3891 6.19179 15.3119 6.19179H14.1061C14.5161 5.78052 14.7572 5.22689 14.7572 4.58626C14.7572 3.07563 13.5354 2 12.008 2C10.8505 2 9.86977 2.64063 9.5 3.79535C9.13022 2.64063 8.14952 2 6.99196 2C5.46463 2 4.23473 3.07563 4.23473 4.58626C4.23473 5.22689 4.48392 5.78052 4.89389 6.19179H3.6881C2.64309 6.19179 2 6.85615 2 7.92388V9.7825C2 10.6209 2.33762 11.1903 2.99678 11.3959H3.03698V15.8171C3.03698 17.2249 3.84084 18 5.27974 18ZM8.7283 6.19179H7.61093C6.46141 6.19179 5.80225 5.57489 5.80225 4.76817C5.80225 3.98517 6.34084 3.49481 7.15273 3.49481C8.0209 3.49481 8.7283 4.19081 8.7283 5.21898V6.19179ZM10.2717 6.19179V5.21898C10.2717 4.19081 10.9791 3.49481 11.8392 3.49481C12.6511 3.49481 13.1977 3.98517 13.1977 4.76817C13.1977 5.57489 12.5386 6.19179 11.3891 6.19179H10.2717ZM8.68006 10.0751H4.13022C3.77653 10.0751 3.62379 9.91695 3.62379 9.56896V8.12951C3.62379 7.78151 3.77653 7.63124 4.13022 7.63124H8.68006V10.0751ZM10.3199 10.0751V7.63124H14.8778C15.2315 7.63124 15.3762 7.78151 15.3762 8.12951V9.59268C15.3762 9.94068 15.2315 10.0751 14.8778 10.0751H10.3199ZM8.68006 16.5368H5.56913C4.99035 16.5368 4.66077 16.2126 4.66077 15.651V11.5146H8.68006V16.5368ZM10.3199 16.5368V11.5146H14.3392V15.651C14.3392 16.2126 14.0096 16.5368 13.4228 16.5368H10.3199Z"    />  </svg>