  <svg viewBox="0 0 20 20" fill="none" xmlns="http://www.w3.org/2000/svg">    <path      d="M15.1429 13.591V16.4286C15.1429 17.1387 14.5672 17.7143 13.8571 17.7143H3.57143C2.86135 17.7143 2.28571 17.1387 2.28571 16.4286V11.1257L8.40963 14.4232C8.5999 14.5256 8.82892 14.5256 9.01919 14.4232L10.8333 13.4463C10.3316 13.2669 9.85612 13.0325 9.41407 12.7503L8.71441 13.127L2.28571 9.66541V8.71429C2.28571 8.00421 2.86135 7.42857 3.57143 7.42857H6.17168C6.1526 7.21684 6.14286 7.00241 6.14286 6.78571C6.14286 6.56901 6.1526 6.35459 6.17168 6.14286H3.57143C2.15127 6.14286 1 7.29413 1 8.71429V16.4286C1 17.8487 2.15127 19 3.57143 19H13.8571C15.2773 19 16.4286 17.8487 16.4286 16.4286V13.0861C16.0213 13.2943 15.5911 13.4642 15.1429 13.591ZM13.2143 12.5714C16.4096 12.5714 19 9.98108 19 6.78571C19 3.59035 16.4096 1 13.2143 1C10.0189 1 7.42857 3.59035 7.42857 6.78571C7.42857 9.98108 10.0189 12.5714 13.2143 12.5714ZM15.7857 7.16229L16.2403 7.61686C16.4242 7.80072 16.4792 8.07722 16.3797 8.31744C16.2802 8.55766 16.0457 8.71429 15.7857 8.71429H10.6429C10.3829 8.71428 10.1485 8.55765 10.049 8.31744C9.94945 8.07722 10.0045 7.80072 10.1883 7.61686L10.6429 7.16229V4.85714C10.6429 3.43698 11.7941 2.28571 13.2143 2.28571C14.6345 2.28571 15.7857 3.43698 15.7857 4.85714V7.16229ZM13.2143 11.2857C12.3746 11.2857 11.6602 10.7491 11.3955 10H15.0331C14.7684 10.7491 14.054 11.2857 13.2143 11.2857Z"    />  </svg>