  <svg viewBox="0 0 20 20" fill="none" xmlns="http://www.w3.org/2000/svg">    <path      d="M18 15.1111C18 16.7066 16.7066 18 15.1111 18H4.88889C3.2934 18 2 16.7066 2 15.1111V4.88889C2 3.2934 3.2934 2 4.88889 2H15.1111C16.7066 2 18 3.2934 18 4.88889V15.1111ZM14.4444 6.22222C14.4444 5.88472 14.1936 5.60579 13.8682 5.56164L13.7778 5.55556H6.22222L6.13176 5.56164C5.80636 5.60579 5.55556 5.88472 5.55556 6.22222C5.55556 6.55973 5.80636 6.83866 6.13176 6.8828L6.22222 6.88889H13.7778L13.8682 6.8828C14.1936 6.83866 14.4444 6.55973 14.4444 6.22222ZM14.4444 13.7778C14.4444 13.4403 14.1936 13.1613 13.8682 13.1172L13.7778 13.1111H6.22222L6.13176 13.1172C5.80636 13.1613 5.55556 13.4403 5.55556 13.7778C5.55556 14.1153 5.80636 14.3942 6.13176 14.4384L6.22222 14.4444H13.7778L13.8682 14.4384C14.1936 14.3942 14.4444 14.1153 14.4444 13.7778ZM14.4444 10C14.4444 9.66249 14.1936 9.38356 13.8682 9.33942L13.7778 9.33333H6.22222L6.13176 9.33942C5.80636 9.38356 5.55556 9.66249 5.55556 10C5.55556 10.3375 5.80636 10.6164 6.13176 10.6606L6.22222 10.6667H13.7778L13.8682 10.6606C14.1936 10.6164 14.4444 10.3375 14.4444 10Z"    />  </svg>