  <svg viewBox="0 0 48 48" fill="none" xmlns="http://www.w3.org/2000/svg">    <path      fill-rule="evenodd"      clip-rule="evenodd"      d="M0.632507 38.2107C-1.13958 41.2105 1.02221 45 4.50557 45H43.4944C46.9778 45 49.1396 41.2105 47.3675 38.2107L27.8731 5.21072C26.1318 2.26309 21.8682 2.26309 20.1269 5.21072L0.632507 38.2107ZM21 17C21 15.3431 22.3431 14 24 14C25.6569 14 27 15.3431 27 17V26C27 27.6569 25.6569 29 24 29C22.3431 29 21 27.6569 21 26V17ZM27 35C27 36.6569 25.6569 38 24 38C22.3431 38 21 36.6569 21 35C21 33.3431 22.3431 32 24 32C25.6569 32 27 33.3431 27 35Z"    />  </svg>