<svg width="20" height="20" viewBox="0 0 20 20" fill="none" xmlns="http://www.w3.org/2000/svg">
<path fill-rule="evenodd" clip-rule="evenodd" d="M17.5 10C17.5 14.1421 14.1421 17.5 10 17.5C5.85786 17.5 2.5 14.1421 2.5 10C2.5 5.85786 5.85786 2.5 10 2.5C14.1421 2.5 17.5 5.85786 17.5 10ZM19 10C19 14.9706 14.9706 19 10 19C5.02944 19 1 14.9706 1 10C1 5.02944 5.02944 1 10 1C14.9706 1 19 5.02944 19 10ZM11.3499 14.05C11.3499 14.7956 10.7455 15.4 9.99994 15.4C9.25436 15.4 8.64995 14.7956 8.64995 14.05V9.99999C8.64995 9.2544 9.25436 8.64999 9.99995 8.64999C10.7455 8.64999 11.3499 9.2544 11.3499 9.99999V14.05ZM8.64991 5.95C8.64991 5.20441 9.25433 4.6 9.99992 4.6C10.7455 4.6 11.3499 5.20441 11.3499 5.95C11.3499 6.69558 10.7455 7.3 9.99991 7.3C9.25433 7.3 8.64991 6.69558 8.64991 5.95Z" fill="#979797"/>
</svg>
